<svg
  xmlns="http://www.w3.org/2000/svg"
  viewBox="0 0 375 375"
  aria-labelledby="logo"
  role="img"
>
  <title id="logo">Wood-Elf</title>
  <defs>
    <style>
      .cls-1 {
        fill: transparent;
      }
      .cls-2 {
        fill: #d6ad61;
      }
      .cls-3 {
        fill: #040404;
      }
    </style>
  </defs>
  <path
    class="cls-1"
    d="M187.46,375q-92.59,0-185.2.05c-2,0-2.25-.55-2.25-2.34Q.09,187.46,0,2.26C0,.29.55,0,2.34,0q185.21.08,370.4,0c2,0,2.25.55,2.25,2.34q-.08,185.21,0,370.4c0,2-.55,2.25-2.34,2.25Q280.05,374.92,187.46,375ZM203.59,85.29c-.06,1.18-.13,1.9-.13,2.62q0,89.48-.06,179c0,2.29.7,2.69,2.81,2.69q55.23-.09,110.47,0c2.2,0,2.94-.46,2.93-2.83q-.11-78,0-156a4.16,4.16,0,0,0-2-3.87q-63.7-45.08-127.33-90.27c-2-1.45-3.32-1.5-5.38,0q-63.6,45.22-127.33,90.27a4.37,4.37,0,0,0-2.08,4.08q.08,77.73,0,155.45c0,2.45.48,3.19,3.09,3.18q55-.15,110,0c2.5,0,3.17-.57,3.16-3.13q-.12-70.6-.07-141.2a4.74,4.74,0,0,0-.23-2.46c-1.18.07-1.92,1-2.77,1.55q-29.15,20.4-58.3,40.82a4.24,4.24,0,0,0-1.94,3.94c0,29,0,58,.1,87,0,2.64-.77,3.15-3.22,3.13-12-.13-24-.06-36-.06-3.22,0-3.22,0-3.22-3.2,0-44.65.13-89.3-.17-133.95,0-6,1.73-9.41,6.64-12.84,37.73-26.37,75.23-53.08,112.75-79.74,1.69-1.19,2.78-1.31,4.52-.07q33.85,24.15,67.81,48.13,24.56,17.4,49.13,34.77c1.28.9,2.36,1.68,2.36,3.68q-.12,70.36,0,140.71c0,2.21-.77,2.56-2.73,2.55-12.08-.08-24.16,0-36.24,0-3.19,0-3.2,0-3.2-3.26q0-61.47.08-123a5.63,5.63,0,0,0-2.8-5.24C253,119.88,241.8,112,230.62,104.17,221.76,98,212.88,91.78,203.59,85.29ZM5.46,298.47c.15.7.22,1.19.36,1.66q5.06,17.85,10.12,35.7c1.63,5.74,1.63,5.67,7.61,5.69,1.56,0,2.1-.57,2.5-1.95,2.62-9.09,5.31-18.16,8-27.24.24-.79.22-1.75,1.26-2.38,2.44,8.8,4.85,17.42,7.23,26.05,1.51,5.47,1.49,5.38,7.24,5.51,1.88.05,2.48-.62,3-2.33,3.43-11.88,7-23.73,10.51-35.58,1.53-5.16,1.54-5-3.79-5.2-2-.06-2.49.76-2.9,2.38-2.48,9.9-5,19.79-7.58,29.68-.16.64-.42,1.26-.83,2.44-2.67-10.39-5.18-20.2-7.7-30-1.13-4.43-1.14-4.27-5.72-4.5-2.59-.13-3.64.59-4.32,3.23-2.66,10.42-5.64,20.76-8.63,31.58-.35-1.16-.58-1.86-.77-2.57-2.56-10.06-5.09-20.12-7.69-30.17-.21-.8.06-2.12-1.58-2C9.71,298.55,7.64,298.47,5.46,298.47ZM149,298c-12.54,0-21.92,9.41-21.92,22a21.54,21.54,0,0,0,22.16,22c12.47-.07,21.83-9.58,21.78-22.12S161.54,297.93,149,298Zm-75.6,21.88c0,12.54,9.29,22,21.79,22.08s21.92-9.22,22-21.8S108.05,298,95.55,298C82.77,297.88,73.41,307.11,73.36,319.83Zm117.5,21.59c3.35,0,5.77.09,8.18,0,11.68-.49,19.37-7.52,20.74-18.87,1.46-12.15-5.91-21.89-17.94-23.67-5.54-.82-11.13-.17-16.69-.44-1.74-.09-2.21.38-2.19,2.15.09,10.73,0,21.46,0,32.19,0,2.82-1,6.64.43,8.17C185.07,342.7,188.92,341.23,190.86,341.42Zm82.62-21.71c0,6.58,0,13.16,0,19.74,0,1.62.39,2.08,2,2.05,6.07-.1,12.15,0,18.23,0,3.61,0,3.5,0,3.59-3.51.05-1.7-.51-2.07-2.11-2-4.32.1-8.66,0-13,.06-1.25,0-1.77-.24-1.72-1.63.1-3.41.12-6.83,0-10.23-.06-1.57.61-1.74,1.9-1.71,3.16.08,6.33,0,9.49,0,3.6,0,3.49,0,3.6-3.51,0-1.72-.55-2.05-2.11-2-3.66.1-7.33-.06-11,.07-1.61.06-1.94-.48-1.89-2,.12-3.08.14-6.16,0-9.24-.08-1.64.53-1.91,2-1.88,3.75.1,7.5,0,11.24,0s3.61,0,3.6-3.78c0-1.47-.51-1.78-1.87-1.76-6.74.06-13.49.07-20.23,0-1.48,0-1.76.48-1.75,1.83C273.51,306.72,273.48,313.22,273.48,319.71Zm70.25,0v16.73c0,5.08,0,5,5,5.07,1.87,0,2.15-.63,2.12-2.28-.1-5,0-10-.07-15,0-1.38.3-1.86,1.76-1.82,3.41.11,6.83-.05,10.24.08,1.65.06,2.54-.25,2.2-2.11a5,5,0,0,1,0-1.49c.22-1.5-.28-2-1.88-2-3.49.14-7,0-10.48.07-1.34,0-1.9-.25-1.84-1.74.11-3.16.14-6.33,0-9.49-.09-1.68.59-1.86,2-1.84,4.83.08,9.65,0,14.48.06,1.45,0,1.93-.43,1.74-1.81a6,6,0,0,1,0-1.74c.27-1.67-.43-2-2-2q-10.61.13-21.22,0c-1.65,0-2.08.45-2.06,2.07C343.78,306.9,343.73,313.3,343.73,319.71Zm-32.76.22c0,6.5,0,13,0,19.49,0,1.58.32,2.12,2,2.08,5.42-.11,10.83,0,16.24,0,3.4,0,3.3,0,3.39-3.42.05-1.67-.48-2.11-2.09-2.05-3.41.12-6.84-.1-10.24.09-2,.11-2.29-.59-2.27-2.38.08-10.07,0-20.15,0-30.23,0-5.06,0-5-5-5-1.57,0-2.1.32-2.08,2C311,306.94,311,313.44,311,319.93ZM245.65,322c3.32,0,6.65-.18,9.95.06,2.42.18,3.07-.75,2.73-2.9a3,3,0,0,1,0-1c.3-1.82-.57-2.18-2.24-2.16-6.39.09-12.78,0-19.17,0-4.15,0-4.08,0-4.07,4.24,0,1.46.47,1.79,1.83,1.75C238.34,322,242,322,245.65,322Z"
    transform="translate(0)"
  />
  <path
    class="cls-2"
    d="M203.59,85.29c9.29,6.49,18.17,12.67,27,18.88C241.8,112,253,119.88,264.17,127.66a5.63,5.63,0,0,1,2.8,5.24q-.17,61.48-.08,123c0,3.26,0,3.26,3.2,3.26,12.08,0,24.16,0,36.24,0,2,0,2.74-.34,2.73-2.55q-.09-70.35,0-140.71c0-2-1.08-2.78-2.36-3.68q-24.57-17.39-49.13-34.77-33.93-24-67.81-48.13c-1.74-1.24-2.83-1.12-4.52.07-37.52,26.66-75,53.37-112.75,79.74C67.6,112.56,65.83,116,65.87,122c.3,44.65.17,89.3.17,134,0,3.2,0,3.2,3.22,3.2,12,0,24-.07,36,.06,2.45,0,3.23-.49,3.22-3.13-.1-29,0-58-.1-87a4.24,4.24,0,0,1,1.94-3.94q29.19-20.37,58.3-40.82c.85-.6,1.59-1.48,2.77-1.55a4.74,4.74,0,0,1,.23,2.46q0,70.61.07,141.2c0,2.56-.66,3.14-3.16,3.13q-55-.12-110,0c-2.61,0-3.1-.73-3.09-3.18q.1-77.71,0-155.45a4.37,4.37,0,0,1,2.08-4.08q63.72-45.07,127.33-90.27c2.06-1.46,3.35-1.41,5.38,0q63.6,45.21,127.33,90.27a4.16,4.16,0,0,1,2,3.87q-.08,78,0,156c0,2.37-.73,2.84-2.93,2.83q-55.24-.09-110.47,0c-2.11,0-2.81-.4-2.81-2.69q.1-89.48.06-179C203.46,87.19,203.53,86.47,203.59,85.29Zm10.87,20.6a3.32,3.32,0,0,0-.46,2.42q0,74.08-.05,148.16c0,2,.41,2.72,2.57,2.7q18.49-.15,37,0c2.23,0,2.87-.71,2.87-2.82q-.06-59.1,0-118.19a5.18,5.18,0,0,0-2.46-4.77c-10.48-7.23-20.89-14.56-31.33-21.85ZM161.07,201q0-27.73,0-55.48c0-.78.43-1.84-.38-2.28s-1.31.52-1.89.92C146.1,153,133.44,162,120.73,170.79a3.75,3.75,0,0,0-1.81,3.48q.08,41.11,0,82.22c0,2,.48,2.7,2.61,2.68q18.49-.15,37,0c2.12,0,2.62-.65,2.61-2.68C161,238,161.07,219.5,161.07,201Z"
    transform="translate(0)"
  />
  <path
    class="cls-3"
    d="M5.46,298.47c2.18,0,4.25.08,6.3,0,1.64-.09,1.37,1.23,1.58,2,2.6,10,5.13,20.11,7.69,30.17.19.71.42,1.41.77,2.57,3-10.82,6-21.16,8.63-31.58.68-2.64,1.73-3.36,4.32-3.23,4.58.23,4.59.07,5.72,4.5,2.52,9.8,5,19.61,7.7,30,.41-1.18.67-1.8.83-2.44,2.55-9.89,5.1-19.78,7.58-29.68.41-1.62.94-2.44,2.9-2.38,5.33.16,5.32,0,3.79,5.2-3.53,11.85-7.08,23.7-10.51,35.58-.5,1.71-1.1,2.38-3,2.33-5.75-.13-5.73,0-7.24-5.51-2.38-8.63-4.79-17.25-7.23-26.05-1,.63-1,1.59-1.26,2.38-2.69,9.08-5.38,18.15-8,27.24-.4,1.38-.94,1.95-2.5,1.95-6,0-6,.05-7.61-5.69Q10.89,318,5.82,300.13C5.68,299.66,5.61,299.17,5.46,298.47Z"
    transform="translate(0)"
  />
  <path
    class="cls-3"
    d="M149,298c12.58,0,22,9.29,22,21.84s-9.31,22-21.78,22.12a21.54,21.54,0,0,1-22.16-22C127,307.36,136.42,298,149,298ZM163.67,320c0-7.59-3.85-13.32-10.26-15.07-6.75-1.85-13.48.57-16.84,6.05-3.58,5.84-2.86,15,1.56,19.89a15.07,15.07,0,0,0,16.52,3.62C160.33,332.32,163.64,327,163.67,320Z"
    transform="translate(0)"
  />
  <path
    class="cls-3"
    d="M73.36,319.83c0-12.72,9.41-21.95,22.19-21.88,12.5.07,21.76,9.55,21.64,22.16s-9.52,21.87-22,21.8S73.31,332.37,73.36,319.83Zm22,15.65c8.73,0,14.66-6.42,14.6-15.74,0-9.14-6-15.34-14.72-15.34S80.53,310.67,80.55,320,86.56,335.52,95.39,335.48Z"
    transform="translate(0)"
  />
  <path
    class="cls-3"
    d="M190.86,341.42c-1.94-.19-5.79,1.28-7.42-.48-1.42-1.53-.42-5.35-.43-8.17,0-10.73,0-21.46,0-32.19,0-1.77.45-2.24,2.19-2.15,5.56.27,11.15-.38,16.69.44,12,1.78,19.4,11.52,17.94,23.67-1.37,11.35-9.06,18.38-20.74,18.87C196.63,341.51,194.21,341.42,190.86,341.42ZM190,320c0,4.74.05,9.48,0,14.21,0,1.33.23,1.95,1.73,1.87,2.49-.14,5,0,7.48-.12,7.07-.42,12.06-5.15,13.18-12.36,1.34-8.66-2-15.74-8.61-18.24a19.36,19.36,0,0,0-3.6-.9c-2.72-.47-5.48-.2-8.21-.34-1.51-.07-2,.34-2,1.92C190.11,310.68,190,315.33,190,320Z"
    transform="translate(0)"
  />
  <path
    class="cls-3"
    d="M273.48,319.71c0-6.49,0-13,0-19.48,0-1.35.27-1.85,1.75-1.83,6.74.08,13.49.07,20.23,0,1.36,0,1.87.29,1.87,1.76,0,3.78.09,3.78-3.6,3.78s-7.49.06-11.24,0c-1.45,0-2.06.24-2,1.88.14,3.08.12,6.16,0,9.24-.05,1.49.28,2,1.89,2,3.66-.13,7.33,0,11-.07,1.56-.05,2.16.28,2.11,2-.11,3.5,0,3.51-3.6,3.51-3.16,0-6.33.05-9.49,0-1.29,0-2,.14-1.9,1.71.13,3.4.11,6.82,0,10.23-.05,1.39.47,1.65,1.72,1.63,4.32-.07,8.66,0,13-.06,1.6,0,2.16.33,2.11,2-.09,3.51,0,3.51-3.59,3.51-6.08,0-12.16-.06-18.23,0-1.65,0-2.06-.43-2-2.05C273.53,332.87,273.48,326.29,273.48,319.71Z"
    transform="translate(0)"
  />
  <path
    class="cls-3"
    d="M343.73,319.71c0-6.41,0-12.81,0-19.22,0-1.62.41-2.09,2.06-2.07q10.61.15,21.22,0c1.6,0,2.3.36,2,2a6,6,0,0,0,0,1.74c.19,1.38-.29,1.84-1.74,1.81-4.83-.09-9.65,0-14.48-.06-1.41,0-2.09.16-2,1.84.15,3.16.12,6.33,0,9.49-.06,1.49.5,1.77,1.84,1.74,3.49-.08,7,.07,10.48-.07,1.6-.06,2.1.46,1.88,2a5,5,0,0,0,0,1.49c.34,1.86-.55,2.17-2.2,2.11-3.41-.13-6.83,0-10.24-.08-1.46,0-1.78.44-1.76,1.82.08,5,0,10,.07,15,0,1.65-.25,2.31-2.12,2.28-5-.08-5,0-5-5.07Z"
    transform="translate(0)"
  />
  <path
    class="cls-3"
    d="M311,319.93c0-6.49.06-13-.05-19.49,0-1.69.51-2,2.08-2,5,.05,5,0,5,5,0,10.08,0,20.16,0,30.23,0,1.79.3,2.49,2.27,2.38,3.4-.19,6.83,0,10.24-.09,1.61-.06,2.14.38,2.09,2.05-.09,3.42,0,3.42-3.39,3.42-5.41,0-10.82-.07-16.24,0-1.69,0-2-.5-2-2.08C311,332.93,311,326.43,311,319.93Z"
    transform="translate(0)"
  />
  <path
    class="cls-3"
    d="M245.65,322c-3.65,0-7.31-.06-11,0-1.36,0-1.82-.29-1.83-1.75,0-4.24-.08-4.24,4.07-4.24,6.39,0,12.78.06,19.17,0,1.67,0,2.54.34,2.24,2.16a3,3,0,0,0,0,1c.34,2.15-.31,3.08-2.73,2.9C252.3,321.83,249,322,245.65,322Z"
    transform="translate(0)"
  />
  <path
    class="cls-1"
    d="M214.46,105.89l8.12,5.65c10.44,7.29,20.85,14.62,31.33,21.85a5.18,5.18,0,0,1,2.46,4.77q-.06,59.1,0,118.19c0,2.11-.64,2.84-2.87,2.82q-18.5-.17-37,0c-2.16,0-2.57-.7-2.57-2.7q.08-74.09.05-148.16A3.32,3.32,0,0,1,214.46,105.89Z"
    transform="translate(0)"
  />
  <path
    class="cls-1"
    d="M161.07,201c0,18.49,0,37,.05,55.48,0,2-.49,2.7-2.61,2.68q-18.49-.15-37,0c-2.13,0-2.61-.65-2.61-2.68q.09-41.12,0-82.22a3.75,3.75,0,0,1,1.81-3.48C133.44,162,146.1,153,158.79,144.17c.58-.4,1.19-1.31,1.89-.92s.37,1.5.38,2.28Q161.09,173.27,161.07,201Z"
    transform="translate(0)"
  />
  <path
    class="cls-1"
    d="M163.67,320c0,7-3.34,12.3-9,14.49a15.07,15.07,0,0,1-16.52-3.62C133.71,326,133,316.84,136.57,311c3.36-5.48,10.09-7.9,16.84-6.05C159.82,306.7,163.71,312.43,163.67,320Z"
    transform="translate(0)"
  />
  <path
    class="cls-1"
    d="M95.39,335.48c-8.83,0-14.81-6.21-14.84-15.49s5.89-15.59,14.72-15.59,14.67,6.2,14.72,15.34C110.05,329.06,104.12,335.45,95.39,335.48Z"
    transform="translate(0)"
  />
  <path
    class="cls-1"
    d="M190,320c0-4.65.07-9.3,0-14,0-1.58.47-2,2-1.92,2.73.14,5.49-.13,8.21.34a19.36,19.36,0,0,1,3.6.9c6.64,2.5,9.95,9.58,8.61,18.24-1.12,7.21-6.11,11.94-13.18,12.36-2.49.14-5,0-7.48.12-1.5.08-1.75-.54-1.73-1.87C190.09,329.46,190,324.72,190,320Z"
    transform="translate(0)"
  />
</svg>
